<?xml version="1.0" encoding="UTF-8"?>
<!DOCTYPE svg PUBLIC "-//W3C//DTD SVG 1.1//EN" "http://www.w3.org/Graphics/SVG/1.1/DTD/svg11.dtd">
<!-- Creator: CorelDRAW X7 -->
<svg xmlns="http://www.w3.org/2000/svg" xml:space="preserve" width="1.70667in" height="1.70667in" version="1.1" style="shape-rendering:geometricPrecision; text-rendering:geometricPrecision; image-rendering:optimizeQuality; fill-rule:evenodd; clip-rule:evenodd"
viewBox="0 0 430 430"
 xmlns:xlink="http://www.w3.org/1999/xlink">
 <defs>
  <style type="text/css">
   <![CDATA[
    .fil0 {fill:none}
    .fil1 {fill:#05D1D2}
   ]]>
  </style>
 </defs>
 <g id="Layer_x0020_1">
  <metadata id="CorelCorpID_0Corel-Layer"/>
  <rect class="fil0" width="430" height="430"/>
  <path class="fil1" d="M48 85l334 0c12,0 22,9 22,21l0 217c0,12 -10,22 -22,22l-334 0c-12,0 -22,-10 -22,-22l0 -217c0,-12 10,-21 22,-21zm36 80l201 0c5,0 10,5 10,10l0 19c0,5 -5,10 -10,10l-201 0c-5,0 -10,-5 -10,-10l0 -19c0,-5 5,-10 10,-10zm262 61l-201 0c-5,0 -9,4 -9,9l0 20c0,5 4,10 9,10l201 0c5,0 10,-5 10,-10l0 -20c0,-5 -5,-9 -10,-9zm0 -61l-30 0c-5,0 -9,5 -9,10l0 19c0,5 4,10 9,10l30 0c5,0 10,-5 10,-10l0 -19c0,-5 -5,-10 -10,-10zm-262 61l30 0c5,0 9,4 9,9l0 20c0,5 -4,10 -9,10l-30 0c-5,0 -10,-5 -10,-10l0 -20c0,-5 5,-9 10,-9z"/>
 </g>
</svg>
