<?xml version="1.0" encoding="UTF-8"?>
<!DOCTYPE svg PUBLIC "-//W3C//DTD SVG 1.1//EN" "http://www.w3.org/Graphics/SVG/1.1/DTD/svg11.dtd">
<!-- Creator: CorelDRAW X7 -->
<svg xmlns="http://www.w3.org/2000/svg" xml:space="preserve" width="1.70667in" height="1.70667in" version="1.1" style="shape-rendering:geometricPrecision; text-rendering:geometricPrecision; image-rendering:optimizeQuality; fill-rule:evenodd; clip-rule:evenodd"
viewBox="0 0 813 813"
 xmlns:xlink="http://www.w3.org/1999/xlink">
 <defs>
  <style type="text/css">
   <![CDATA[
    .fil1 {fill:none}
    .fil0 {fill:#05D1D2}
   ]]>
  </style>
 </defs>
 <g id="Layer_x0020_1">
  <metadata id="CorelCorpID_0Corel-Layer"/>
  <g id="_738855664">
   <g>
    <path class="fil0" d="M438 432c0,-25 0,-48 15,-67 36,-45 74,4 74,61 0,30 -15,66 -42,72 -26,4 -47,-40 -47,-66l0 0 0 0zm44 126c66,0 106,-70 106,-126 0,-48 -8,-82 -38,-116 -2,-3 -4,-3 -6,-5 -8,-6 -8,-8 -19,-16 -51,-26 -98,0 -123,36 -24,38 -36,93 -17,146 13,42 47,81 97,81l0 0z"/>
    <path class="fil0" d="M209 362c0,17 15,32 32,30 10,0 16,-6 23,-9l21 -12c0,17 -2,153 0,163 9,38 62,32 62,-10l0 -202c0,-30 -24,-45 -51,-30l-58 36c-14,7 -29,13 -29,34l0 0 0 0z"/>
   </g>
   <path class="fil0" d="M74 407c0,89 32,163 87,225 9,12 4,8 19,19l22 21c55,43 133,68 208,68 65,0 137,-23 188,-59 13,-11 32,-26 45,-37l29 -33c41,-51 68,-132 68,-200 0,-42 -6,-80 -17,-112 -6,-11 -10,-30 -33,-30 -15,0 -30,15 -30,32 0,10 17,46 17,89 0,10 4,15 2,25 -4,26 -2,41 -11,72 -4,7 -6,13 -8,18 -2,8 -5,14 -7,19 -6,14 -14,25 -21,36 -21,32 -51,61 -83,80 -34,21 -84,39 -127,38 -15,0 -4,1 -25,0 -9,0 -17,0 -24,0 -17,-2 -33,-6 -46,-10 -162,-53 -236,-229 -164,-380 13,-30 45,-72 72,-93 11,-7 20,-13 32,-21 34,-20 85,-37 126,-37 38,0 69,0 103,13 13,6 56,23 62,32 -17,6 -40,11 -43,30 -6,21 7,38 30,38 4,0 85,-25 91,-28 22,-14 17,-36 11,-63 -2,-11 -11,-62 -15,-70 -12,-19 -38,-22 -53,-2 -8,14 -4,19 -2,33 -40,-19 -76,-36 -121,-42l-51 -4c-6,0 -6,0 -13,0 -72,2 -137,29 -193,72 -4,4 -10,8 -14,13l-15 14c-17,15 -38,41 -49,62 -26,43 -47,102 -47,172l0 0 0 0z"/>
  </g>
 </g>
 <g id="Layer_x0020_1_0">
  <metadata id="CorelCorpID_1Corel-Layer"/>
  <rect class="fil1" width="813" height="813"/>
 </g>
</svg>
