<?xml version="1.0" encoding="UTF-8"?>
<!DOCTYPE svg PUBLIC "-//W3C//DTD SVG 1.1//EN" "http://www.w3.org/Graphics/SVG/1.1/DTD/svg11.dtd">
<!-- Creator: CorelDRAW X7 -->
<svg xmlns="http://www.w3.org/2000/svg" xml:space="preserve" width="5in" height="5.80437in" version="1.1" style="shape-rendering:geometricPrecision; text-rendering:geometricPrecision; image-rendering:optimizeQuality; fill-rule:evenodd; clip-rule:evenodd"
viewBox="0 0 4306 4998"
 xmlns:xlink="http://www.w3.org/1999/xlink">
 <defs>
  <style type="text/css">
   <![CDATA[
    .fil0 {fill:#FEFEFE}
   ]]>
  </style>
 </defs>
 <g id="Layer_x0020_1">
  <metadata id="CorelCorpID_0Corel-Layer"/>
  <path class="fil0" d="M0 1476l0 2035c0,303 203,386 398,503 193,115 375,226 562,338 145,86 1016,646 1173,646 157,0 234,-59 332,-118l1407 -844c179,-109 434,-210 434,-486l0 -2074c0,-301 -208,-381 -403,-498l-1418 -852c-399,-239 -473,-112 -933,162l-1137 682c-196,118 -415,200 -415,506zm1814 1771c-95,0 -179,-79 -179,-173l0 -1150c0,-90 84,-172 173,-172 78,0 242,114 314,157 100,61 195,117 294,177 124,75 329,191 442,266 112,74 111,223 -2,298l-147 89c-51,28 -95,56 -144,86l-587 350c-40,24 -108,72 -164,72zm-1076 -800c0,300 27,395 131,651 25,60 84,160 124,216 123,169 258,296 440,406 178,107 446,194 657,194 276,0 420,-23 667,-132 120,-54 209,-121 308,-198 277,-216 503,-650 503,-1027 0,-206 -10,-350 -84,-543 -17,-46 -31,-80 -50,-123 -84,-180 -200,-325 -345,-454 -9,-9 -13,-15 -23,-23 -17,-14 -32,-24 -49,-38 -205,-169 -547,-292 -812,-292 -152,0 -262,1 -411,44 -136,40 -240,79 -358,149 -36,21 -71,43 -104,68 -182,136 -287,250 -403,442 -65,107 -116,240 -150,363 -21,78 -41,202 -41,297z"/>
 </g>
</svg>
