<?xml version="1.0" encoding="UTF-8"?>
<!DOCTYPE svg PUBLIC "-//W3C//DTD SVG 1.1//EN" "http://www.w3.org/Graphics/SVG/1.1/DTD/svg11.dtd">
<!-- Creator: CorelDRAW X7 -->
<svg xmlns="http://www.w3.org/2000/svg" xml:space="preserve" width="1.70667in" height="1.70667in" version="1.1" style="shape-rendering:geometricPrecision; text-rendering:geometricPrecision; image-rendering:optimizeQuality; fill-rule:evenodd; clip-rule:evenodd"
viewBox="0 0 430 430"
 xmlns:xlink="http://www.w3.org/1999/xlink">
 <defs>
  <style type="text/css">
   <![CDATA[
    .fil1 {fill:none}
    .fil0 {fill:#05D1D2}
   ]]>
  </style>
 </defs>
 <g id="Layer_x0020_1">
  <metadata id="CorelCorpID_0Corel-Layer"/>
  <path class="fil0" d="M146 190c-2,-10 -20,-14 -32,-11 -4,27 -2,80 -1,108 1,45 33,31 61,17 36,-18 117,-63 130,-87 -12,-26 -92,-70 -128,-86 -66,-30 -118,-52 -126,30 -5,51 -4,152 16,194 42,90 191,-9 247,-53 6,-4 10,-7 16,-12 76,-65 63,-86 12,-137 -38,-37 -234,-182 -275,-77 82,-31 218,57 268,111 26,28 19,37 -7,62 -25,24 -62,51 -96,69 -124,67 -151,68 -152,-95 0,-67 -9,-106 74,-74 25,9 90,43 98,68 -14,19 -49,37 -72,48l-22 8c-22,1 -8,-70 -11,-83z"/>
  <rect class="fil1" width="430" height="430"/>
 </g>
</svg>
