<?xml version="1.0" encoding="UTF-8"?>
<!DOCTYPE svg PUBLIC "-//W3C//DTD SVG 1.1//EN" "http://www.w3.org/Graphics/SVG/1.1/DTD/svg11.dtd">
<!-- Creator: CorelDRAW X7 -->
<svg xmlns="http://www.w3.org/2000/svg" xml:space="preserve" width="1.70667in" height="1.70667in" version="1.1" style="shape-rendering:geometricPrecision; text-rendering:geometricPrecision; image-rendering:optimizeQuality; fill-rule:evenodd; clip-rule:evenodd"
viewBox="0 0 430 430"
 xmlns:xlink="http://www.w3.org/1999/xlink">
 <defs>
  <style type="text/css">
   <![CDATA[
    .fil0 {fill:none}
    .fil1 {fill:#05D1D2}
   ]]>
  </style>
 </defs>
 <g id="Layer_x0020_1">
  <metadata id="CorelCorpID_0Corel-Layer"/>
  <rect class="fil0" width="430" height="430"/>
 </g>
 <g id="Layer_x0020_1_0">
  <metadata id="CorelCorpID_1Corel-Layer"/>
  <path class="fil1" d="M48 85l334 0c12,0 22,10 22,22l0 216c0,12 -10,22 -22,22l-334 0c-12,0 -22,-10 -22,-22l0 -216c0,-12 10,-22 22,-22zm28 63l41 0 0 47 45 0 0 -47 42 0 0 134 -42 0 0 -54 -45 0 0 54 -41 0 0 -134zm156 0l61 0c12,0 21,2 29,5 7,4 13,8 18,14 5,7 9,14 11,22 2,8 3,17 3,26 0,14 -2,25 -5,33 -3,8 -8,14 -13,19 -6,6 -12,9 -19,11 -9,3 -17,4 -24,4l-61 0 0 -134 0 0zm41 31l0 72 10 0c8,0 14,-1 18,-2 4,-2 7,-6 9,-11 2,-4 3,-12 3,-23 0,-14 -3,-23 -7,-29 -5,-5 -12,-7 -23,-7l-10 0 0 0z"/>
 </g>
</svg>
