<?xml version="1.0" encoding="UTF-8"?>
<!DOCTYPE svg PUBLIC "-//W3C//DTD SVG 1.1//EN" "http://www.w3.org/Graphics/SVG/1.1/DTD/svg11.dtd">
<!-- Creator: CorelDRAW X7 -->
<svg xmlns="http://www.w3.org/2000/svg" xml:space="preserve" width="1.70667in" height="1.70667in" version="1.1" style="shape-rendering:geometricPrecision; text-rendering:geometricPrecision; image-rendering:optimizeQuality; fill-rule:evenodd; clip-rule:evenodd"
viewBox="0 0 430 430"
 xmlns:xlink="http://www.w3.org/1999/xlink">
 <defs>
  <style type="text/css">
   <![CDATA[
    .fil1 {fill:none}
    .fil0 {fill:#FEFEFE}
   ]]>
  </style>
 </defs>
 <g id="Layer_x0020_1">
  <metadata id="CorelCorpID_0Corel-Layer"/>
  <g id="_744765344">
   <path class="fil0" d="M391 215c0,47 -17,86 -46,119 -5,6 -2,4 -10,10l-12 11c-29,23 -70,36 -110,36 -34,0 -72,-12 -99,-31 -7,-6 -17,-14 -24,-20l-15 -17c-22,-27 -36,-70 -36,-106 0,-22 3,-42 9,-59 3,-6 5,-16 17,-16 8,0 16,8 16,17 0,5 -9,24 -9,47 0,5 -2,8 -1,13 2,14 1,22 6,38 2,4 3,7 4,10 1,4 3,7 4,10 3,7 7,13 11,19 11,17 27,32 44,42 18,11 44,21 67,20 8,0 2,1 13,0 5,0 9,0 13,0 9,-1 17,-3 24,-5 86,-28 125,-121 87,-201 -7,-16 -24,-38 -38,-49 -6,-4 -11,-7 -17,-11 -18,-11 -45,-20 -67,-20 -20,0 -36,0 -54,7 -7,3 -30,12 -33,17 9,3 21,6 23,16 3,11 -4,20 -16,20 -2,0 -45,-13 -48,-15 -12,-7 -9,-19 -6,-33 1,-6 6,-33 8,-37 6,-10 20,-12 28,-1 4,7 2,10 1,17 21,-10 40,-19 64,-22l27 -2c3,0 3,0 7,0 38,1 72,15 102,38 2,2 5,4 7,7l8 7c9,8 20,22 26,33 14,23 25,54 25,91l0 0z"/>
   <path class="fil0" d="M240 228c0,-13 0,-25 8,-35 19,-24 39,2 39,32 0,16 -8,35 -22,38 -14,2 -25,-21 -25,-35l0 0zm23 67c35,0 56,-37 56,-67 0,-25 -4,-43 -20,-61 -1,-2 -2,-2 -3,-3 -4,-3 -4,-4 -10,-8 -27,-14 -52,0 -65,19 -13,20 -19,49 -9,77 7,22 25,43 51,43l0 0z"/>
   <path class="fil0" d="M119 191c0,9 8,17 17,16 5,0 8,-3 12,-5l11 -6c0,9 -1,81 0,86 5,20 33,17 33,-5l0 -107c0,-16 -13,-24 -27,-16l-31 19c-7,4 -15,7 -15,18l0 0z"/>
  </g>
  <rect class="fil1" width="430" height="430"/>
 </g>
</svg>
